<svg width="318" height="88" viewBox="0 0 318 88" xmlns="http://www.w3.org/2000/svg">
<path d="M0 24.2V61.9C0 65.6333 0.533333 69.0333 1.6 72.1C2.66667 75.1667 4.13333 77.8 6 80C7.93333 82.2 10.2 83.9333 12.8 85.2C15.4 86.4 18.2667 87 21.4 87C24.1333 87 26.6667 86.5667 29 85.7C31.4 84.7667 33.5333 83.4667 35.4 81.8C37.2667 80.0667 38.8 78.0333 40 75.7C41.2667 73.3 42.1667 70.6333 42.7 67.7C42.7 67.2333 42.6333 66.9333 42.5 66.8C42.5 66.6667 42.3 66.6 41.9 66.6L28.3 66.7C27.9667 66.6333 27.7333 66.7333 27.6 67C27.4667 67.2667 27.3333 67.5667 27.2 67.9C26.8667 69.1667 26.1667 70.1 25.1 70.7C24.0333 71.3 22.9333 71.5667 21.8 71.5C17.6 71.5 15.5 68.5333 15.5 62.6V25.4C15.5 22.4 16.0333 20.0667 17.1 18.4C18.2333 16.7333 19.7333 15.9 21.6 15.9C22.7333 15.9 23.7667 16.3 24.7 17.1C25.7 17.8333 26.5333 18.9333 27.2 20.4C27.3333 20.7333 27.4333 20.9333 27.5 21C27.6333 21.0667 27.8333 21.1 28.1 21.1H42C42.4667 21.1 42.7333 21.0667 42.8 21C43 20.8 43.0333 20.4 42.9 19.8C41.5667 13.5333 39.1 8.76666 35.5 5.49999C31.9 2.23333 27.2667 0.533329 21.6 0.399994C19 0.399994 16.4 0.966661 13.8 2.1C11.2667 3.23333 8.96667 4.86666 6.9 7C4.83333 9.06666 3.16667 11.5667 1.9 14.5C0.633333 17.4333 0 20.6667 0 24.2Z" />
<path d="M51.407 0.399994C50.6737 0.533329 50.207 0.699996 50.007 0.899993C49.807 1.03333 49.707 1.53333 49.707 2.4V84.8C49.707 85.8667 49.8404 86.4667 50.107 86.6C50.2404 86.8667 50.707 87 51.507 87H91.307C91.9737 87 92.3737 86.9 92.507 86.7C92.707 86.5 92.807 86.0333 92.807 85.3V73.3C92.807 72.5 92.707 72 92.507 71.8C92.307 71.6 91.8404 71.5 91.107 71.5H65.007V2.4C65.007 1.46666 64.907 0.899997 64.707 0.699996C64.507 0.499995 64.007 0.399994 63.207 0.399994H51.407Z" />
<path d="M100.812 0.399994C100.478 0.399994 100.178 0.56666 99.9117 0.899993C99.6451 1.16666 99.5117 1.46666 99.5117 1.79999V85.8C99.5117 86.6 99.9451 87 100.812 87H113.612C114.478 87 114.912 86.6 114.912 85.8V1.79999C114.912 1.46666 114.778 1.16666 114.512 0.899993C114.245 0.56666 113.945 0.399994 113.612 0.399994H100.812Z" />
<path d="M163.482 0.399994H123.382C122.582 0.399994 122.082 0.499995 121.882 0.699996C121.682 0.899997 121.582 1.4 121.582 2.19999V84.8C121.582 85.8 121.715 86.4 121.982 86.6C122.115 86.8667 122.582 87 123.382 87H163.182C163.915 87 164.349 86.9 164.482 86.7C164.682 86.4333 164.782 85.9333 164.782 85.2V73.3C164.782 72.4333 164.682 71.9 164.482 71.7C164.149 71.5 163.715 71.4333 163.182 71.5H136.782V51.2H158.382C158.849 51.2 159.115 51.1333 159.182 51C159.249 50.8667 159.282 50.6333 159.282 50.3V37.1C159.282 36.7667 159.249 36.5333 159.182 36.4C159.049 36.2667 158.815 36.2 158.482 36.2H136.782V15.7H163.882C164.282 15.7 164.515 15.6333 164.582 15.5C164.715 15.3667 164.782 15.1333 164.782 14.8V2.6C164.782 1.53333 164.649 0.866664 164.382 0.599997C164.249 0.466662 163.949 0.399994 163.482 0.399994Z" />
<path d="M185.182 0.799995H173.082C172.349 0.799995 171.915 0.899995 171.782 1.1C171.649 1.23333 171.582 1.66666 171.582 2.4V85.6C171.582 86.2667 171.715 86.6667 171.982 86.8C172.049 86.9333 172.382 87 172.982 87H185.282C186.015 87 186.449 86.9333 186.582 86.8C186.715 86.5333 186.782 86.2333 186.782 85.9V46.1L201.282 85.6C201.482 86.2 201.682 86.6667 201.882 87C202.082 87.2667 202.549 87.4 203.282 87.4H215.182C215.982 87.4 216.482 87.3 216.682 87.1C216.882 86.9 216.982 86.4333 216.982 85.7V2.4C216.982 1.66666 216.849 1.23333 216.582 1.1C216.382 0.899995 215.949 0.799995 215.282 0.799995H202.882C202.282 0.799995 201.882 0.899995 201.682 1.1C201.549 1.23333 201.482 1.59999 201.482 2.19999V42.7L187.182 2.19999C186.915 1.46666 186.682 1.06666 186.482 0.999998C186.282 0.866663 185.849 0.799995 185.182 0.799995Z" />
<path d="M224.83 0.399994C224.097 0.399994 223.73 0.833328 223.73 1.7V14.2C223.73 14.5333 223.83 14.8333 224.03 15.1C224.23 15.3667 224.497 15.5 224.83 15.5H237.53V85.7C237.53 86.5667 237.964 87 238.83 87H251.73C252.53 87 252.93 86.5667 252.93 85.7V15.5H265.73C266.064 15.5 266.33 15.3667 266.53 15.1C266.797 14.8333 266.93 14.5333 266.93 14.2V1.7C266.93 0.833328 266.53 0.399994 265.73 0.399994H224.83Z" />
<path d="M273.73 25.6C273.664 29.3333 274.33 33.0333 275.73 36.7C277.13 40.3 279.097 43.3667 281.63 45.9C283.43 47.7 285.364 49.1 287.43 50.1C289.564 51.0333 291.764 51.5 294.03 51.5H295.23C296.097 51.5 296.964 51.6667 297.83 52C298.764 52.2667 299.597 52.7667 300.33 53.5C301.13 54.2333 301.764 55.2333 302.23 56.5C302.697 57.7667 302.93 59.4 302.93 61.4C302.93 64.4667 302.264 66.9 300.93 68.7C299.597 70.5 297.797 71.4333 295.53 71.5C293.73 71.5 292.33 71.0333 291.33 70.1C290.33 69.1667 289.83 67.8333 289.83 66.1C289.83 65.0333 289.264 64.5 288.13 64.5H275.93C275.264 64.5 274.797 64.6667 274.53 65C274.33 65.2 274.197 65.4667 274.13 65.8C274.13 66.1333 274.13 66.4667 274.13 66.8C275.33 73.2667 277.73 78.2667 281.33 81.8C284.93 85.2667 289.364 87 294.63 87C298.164 87 301.33 86.2333 304.13 84.7C306.93 83.1667 309.297 81.2 311.23 78.8C313.23 76.3333 314.73 73.6 315.73 70.6C316.797 67.5333 317.33 64.4667 317.33 61.4C317.264 58.3333 316.864 55.3 316.13 52.3C315.397 49.2333 314.197 46.5 312.53 44.1C310.93 41.7 308.83 39.7667 306.23 38.3C303.63 36.7667 300.464 36 296.73 36H295.73C293.397 36 291.597 35.1333 290.33 33.4C289.13 31.6 288.53 29.1 288.53 25.9C288.53 22.1667 289.364 19.4667 291.03 17.8C292.23 16.6 293.797 16 295.73 16C297.064 16 298.23 16.4667 299.23 17.4C300.23 18.3333 300.797 19.4667 300.93 20.8C301.064 21.4 301.23 21.9 301.43 22.3C301.697 22.7 302.197 22.9 302.93 22.9H315.13C315.864 22.9 316.264 22.7333 316.33 22.4C316.53 22.2 316.63 21.9333 316.63 21.6C316.63 21.2667 316.597 20.9667 316.53 20.7C313.73 7.36666 306.464 0.599995 294.73 0.399994C291.864 0.399994 289.164 1.06666 286.63 2.4C284.164 3.66666 281.964 5.43333 280.03 7.7C278.164 9.96666 276.664 12.6333 275.53 15.7C274.397 18.7667 273.797 22.0667 273.73 25.6Z" />
</svg>
