<svg width="501" height="88" viewBox="0 0 501 88" xmlns="http://www.w3.org/2000/svg">
<path d="M0 24.2V61.9C0 65.6333 0.533333 69.0333 1.6 72.1C2.66667 75.1667 4.13333 77.8 6 80C7.93333 82.2 10.2 83.9333 12.8 85.2C15.4 86.4 18.2667 87 21.4 87C24.1333 87 26.6667 86.5667 29 85.7C31.4 84.7667 33.5333 83.4667 35.4 81.8C37.2667 80.0667 38.8 78.0333 40 75.7C41.2667 73.3 42.1667 70.6333 42.7 67.7C42.7 67.2333 42.6333 66.9333 42.5 66.8C42.5 66.6667 42.3 66.6 41.9 66.6L28.3 66.7C27.9667 66.6333 27.7333 66.7333 27.6 67C27.4667 67.2667 27.3333 67.5667 27.2 67.9C26.8667 69.1667 26.1667 70.1 25.1 70.7C24.0333 71.3 22.9333 71.5667 21.8 71.5C17.6 71.5 15.5 68.5333 15.5 62.6V25.4C15.5 22.4 16.0333 20.0667 17.1 18.4C18.2333 16.7333 19.7333 15.9 21.6 15.9C22.7333 15.9 23.7667 16.3 24.7 17.1C25.7 17.8333 26.5333 18.9333 27.2 20.4C27.3333 20.7333 27.4333 20.9333 27.5 21C27.6333 21.0667 27.8333 21.1 28.1 21.1H42C42.4667 21.1 42.7333 21.0667 42.8 21C43 20.8 43.0333 20.4 42.9 19.8C41.5667 13.5333 39.1 8.76666 35.5 5.49999C31.9 2.23333 27.2667 0.533329 21.6 0.399994C19 0.399994 16.4 0.966661 13.8 2.1C11.2667 3.23333 8.96667 4.86666 6.9 7C4.83333 9.06666 3.16667 11.5667 1.9 14.5C0.633333 17.4333 0 20.6667 0 24.2Z" />
<path d="M71.307 0.399994C68.107 0.399994 65.1737 1.09999 62.507 2.5C59.8404 3.89999 57.5404 5.73333 55.607 8C53.7404 10.2667 52.2737 12.8333 51.207 15.7C50.207 18.5667 49.707 21.4333 49.707 24.3V63.2C49.707 66.4667 50.2737 69.5333 51.407 72.4C52.607 75.2667 54.1737 77.8 56.107 80C58.107 82.1333 60.407 83.8333 63.007 85.1C65.607 86.3667 68.3737 87 71.307 87C74.5737 87 77.5404 86.3333 80.207 85C82.8737 83.6 85.1404 81.8 87.007 79.6C88.9404 77.3333 90.4404 74.8 91.507 72C92.5737 69.1333 93.107 66.2667 93.107 63.4V24.8C93.107 21.5333 92.507 18.4333 91.307 15.5C90.1737 12.5 88.607 9.89999 86.607 7.7C84.607 5.43333 82.2737 3.66666 79.607 2.4C77.007 1.06666 74.2404 0.399994 71.307 0.399994ZM77.407 64.3C77.407 66.5667 76.8737 68.3667 75.807 69.7C74.7404 70.9667 73.2404 71.6 71.307 71.6C69.3737 71.6 67.8737 70.8667 66.807 69.4C65.7404 67.8667 65.207 66.1667 65.207 64.3V23.6C65.207 22.8 65.3404 21.9667 65.607 21.1C65.8737 20.1667 66.2404 19.3333 66.707 18.6C67.2404 17.8 67.8737 17.1667 68.607 16.7C69.407 16.1667 70.307 15.9 71.307 15.9C72.307 15.9 73.1737 16.1667 73.907 16.7C74.707 17.1667 75.3404 17.8 75.807 18.6C76.3404 19.3333 76.7404 20.1667 77.007 21.1C77.2737 21.9667 77.407 22.8 77.407 23.6V64.3Z" />
<path d="M113.405 0.799995H101.305C100.571 0.799995 100.138 0.899995 100.005 1.1C99.8714 1.23333 99.8047 1.66666 99.8047 2.4V85.6C99.8047 86.2667 99.938 86.6667 100.205 86.8C100.271 86.9333 100.605 87 101.205 87H113.505C114.238 87 114.671 86.9333 114.805 86.8C114.938 86.5333 115.005 86.2333 115.005 85.9V46.1L129.505 85.6C129.705 86.2 129.905 86.6667 130.105 87C130.305 87.2667 130.771 87.4 131.505 87.4H143.405C144.205 87.4 144.705 87.3 144.905 87.1C145.105 86.9 145.205 86.4333 145.205 85.7V2.4C145.205 1.66666 145.071 1.23333 144.805 1.1C144.605 0.899995 144.171 0.799995 143.505 0.799995H131.105C130.505 0.799995 130.105 0.899995 129.905 1.1C129.771 1.23333 129.705 1.59999 129.705 2.19999V42.7L115.405 2.19999C115.138 1.46666 114.905 1.06666 114.705 0.999998C114.505 0.866663 114.071 0.799995 113.405 0.799995Z" />
<path d="M153.053 0.399994C152.32 0.399994 151.953 0.833328 151.953 1.7V14.2C151.953 14.5333 152.053 14.8333 152.253 15.1C152.453 15.3667 152.72 15.5 153.053 15.5H165.753V85.7C165.753 86.5667 166.186 87 167.053 87H179.953C180.753 87 181.153 86.5667 181.153 85.7V15.5H193.953C194.286 15.5 194.553 15.3667 194.753 15.1C195.02 14.8333 195.153 14.5333 195.153 14.2V1.7C195.153 0.833328 194.753 0.399994 193.953 0.399994H153.053Z" />
<path d="M220.953 0.599997C220.42 0.599997 220.086 0.83333 219.953 1.29999L202.153 85.7C201.953 86.1667 201.953 86.5333 202.153 86.8C202.286 86.9333 202.686 87 203.353 87H216.053C216.72 87 217.153 86.9333 217.353 86.8C217.553 86.6 217.72 86.2333 217.853 85.7C217.853 85.7 217.953 85.1333 218.153 84C218.42 82.8667 218.686 81.6 218.953 80.2C219.286 78.8 219.553 77.5 219.753 76.3C220.02 75.1 220.153 74.4667 220.153 74.4H233.353C233.353 74.4667 233.486 75.1 233.753 76.3C234.086 77.4333 234.386 78.7 234.653 80.1C234.986 81.5 235.286 82.7667 235.553 83.9C235.82 85.0333 235.953 85.6 235.953 85.6C236.086 86.2 236.286 86.6 236.553 86.8C236.886 86.9333 237.353 87.0333 237.953 87.1L250.153 87C250.82 87.0667 251.32 87 251.653 86.8C251.72 86.4 251.72 85.8667 251.653 85.2L233.753 1.29999C233.686 0.966661 233.586 0.766662 233.453 0.699996C233.32 0.63333 233.086 0.599997 232.753 0.599997H220.953ZM223.953 58.5C223.82 58.5 223.753 58.4333 223.753 58.3V58.2C223.753 58.1333 223.853 57.6333 224.053 56.7C224.253 55.7 224.486 54.4333 224.753 52.9C225.086 51.3667 225.386 49.8667 225.653 48.4C225.986 46.8667 226.253 45.5333 226.453 44.4C226.72 43.2 226.886 42.4667 226.953 42.2C227.02 42.5333 227.22 43.5333 227.553 45.2C227.886 46.8667 228.253 48.6667 228.653 50.6C229.053 52.4667 229.386 54.1667 229.653 55.7C229.986 57.2333 230.153 58 230.153 58V58.5C230.02 58.6333 229.92 58.7 229.853 58.7H224.153C224.02 58.7 223.953 58.6333 223.953 58.5Z" />
<path d="M258.594 24.2V61.9C258.594 65.6333 259.127 69.0333 260.194 72.1C261.26 75.1667 262.727 77.8 264.594 80C266.527 82.2 268.794 83.9333 271.394 85.2C273.994 86.4 276.86 87 279.994 87C282.727 87 285.26 86.5667 287.594 85.7C289.994 84.7667 292.127 83.4667 293.994 81.8C295.86 80.0667 297.394 78.0333 298.594 75.7C299.86 73.3 300.76 70.6333 301.294 67.7C301.294 67.2333 301.227 66.9333 301.094 66.8C301.094 66.6667 300.894 66.6 300.494 66.6L286.894 66.7C286.56 66.6333 286.327 66.7333 286.194 67C286.06 67.2667 285.927 67.5667 285.794 67.9C285.46 69.1667 284.76 70.1 283.694 70.7C282.627 71.3 281.527 71.5667 280.394 71.5C276.194 71.5 274.094 68.5333 274.094 62.6V25.4C274.094 22.4 274.627 20.0667 275.694 18.4C276.827 16.7333 278.327 15.9 280.194 15.9C281.327 15.9 282.36 16.3 283.294 17.1C284.294 17.8333 285.127 18.9333 285.794 20.4C285.927 20.7333 286.027 20.9333 286.094 21C286.227 21.0667 286.427 21.1 286.694 21.1H300.594C301.06 21.1 301.327 21.0667 301.394 21C301.594 20.8 301.627 20.4 301.494 19.8C300.16 13.5333 297.694 8.76666 294.094 5.49999C290.494 2.23333 285.86 0.533329 280.194 0.399994C277.594 0.399994 274.994 0.966661 272.394 2.1C269.86 3.23333 267.56 4.86666 265.494 7C263.427 9.06666 261.76 11.5667 260.494 14.5C259.227 17.4333 258.594 20.6667 258.594 24.2Z" />
<path d="M309.401 0.399994C308.667 0.399994 308.301 0.833328 308.301 1.7V14.2C308.301 14.5333 308.401 14.8333 308.601 15.1C308.801 15.3667 309.067 15.5 309.401 15.5H322.101V85.7C322.101 86.5667 322.534 87 323.401 87H336.301C337.101 87 337.501 86.5667 337.501 85.7V15.5H350.301C350.634 15.5 350.901 15.3667 351.101 15.1C351.367 14.8333 351.501 14.5333 351.501 14.2V1.7C351.501 0.833328 351.101 0.399994 350.301 0.399994H309.401Z" />
<path d="M404.32 0.399994C403.787 0.533329 403.487 0.666663 403.42 0.799995C403.354 0.866661 403.32 1.06666 403.32 1.39999V61C403.32 65.4667 403.987 69.3333 405.32 72.6C406.72 75.8667 408.52 78.5667 410.72 80.7C412.987 82.8333 415.487 84.4333 418.22 85.5C421.02 86.5 423.82 87 426.62 87C429.487 87 432.32 86.4667 435.12 85.4C437.92 84.3333 440.42 82.7667 442.62 80.7C444.82 78.5667 446.587 75.9333 447.92 72.8C449.254 69.6667 449.92 66.0333 449.92 61.9V1.39999C449.92 0.866663 449.587 0.599997 448.92 0.599997H435.32C434.92 0.599997 434.654 0.63333 434.52 0.699996C434.387 0.766662 434.32 1.03333 434.32 1.5V63.4C434.32 65.0667 434.087 66.5 433.62 67.7C433.154 68.9 432.554 69.9 431.82 70.7C431.154 71.5 430.354 72.1 429.42 72.5C428.487 72.9 427.587 73.1 426.72 73.1C425.787 73.1 424.854 72.9 423.92 72.5C422.987 72.0333 422.154 71.4 421.42 70.6C420.687 69.8 420.087 68.8 419.62 67.6C419.154 66.4 418.92 65 418.92 63.4V1.79999C418.92 1.26666 418.854 0.899997 418.72 0.699996C418.654 0.499995 418.387 0.399994 417.92 0.399994H404.32Z"/>
<path d="M456.641 25.6C456.574 29.3333 457.241 33.0333 458.641 36.7C460.041 40.3 462.007 43.3667 464.541 45.9C466.341 47.7 468.274 49.1 470.341 50.1C472.474 51.0333 474.674 51.5 476.941 51.5H478.141C479.007 51.5 479.874 51.6667 480.741 52C481.674 52.2667 482.507 52.7667 483.241 53.5C484.041 54.2333 484.674 55.2333 485.141 56.5C485.607 57.7667 485.841 59.4 485.841 61.4C485.841 64.4667 485.174 66.9 483.841 68.7C482.507 70.5 480.707 71.4333 478.441 71.5C476.641 71.5 475.241 71.0333 474.241 70.1C473.241 69.1667 472.741 67.8333 472.741 66.1C472.741 65.0333 472.174 64.5 471.041 64.5H458.841C458.174 64.5 457.707 64.6667 457.441 65C457.241 65.2 457.107 65.4667 457.041 65.8C457.041 66.1333 457.041 66.4667 457.041 66.8C458.241 73.2667 460.641 78.2667 464.241 81.8C467.841 85.2667 472.274 87 477.541 87C481.074 87 484.241 86.2333 487.041 84.7C489.841 83.1667 492.207 81.2 494.141 78.8C496.141 76.3333 497.641 73.6 498.641 70.6C499.707 67.5333 500.241 64.4667 500.241 61.4C500.174 58.3333 499.774 55.3 499.041 52.3C498.307 49.2333 497.107 46.5 495.441 44.1C493.841 41.7 491.741 39.7667 489.141 38.3C486.541 36.7667 483.374 36 479.641 36H478.641C476.307 36 474.507 35.1333 473.241 33.4C472.041 31.6 471.441 29.1 471.441 25.9C471.441 22.1667 472.274 19.4667 473.941 17.8C475.141 16.6 476.707 16 478.641 16C479.974 16 481.141 16.4667 482.141 17.4C483.141 18.3333 483.707 19.4667 483.841 20.8C483.974 21.4 484.141 21.9 484.341 22.3C484.607 22.7 485.107 22.9 485.841 22.9H498.041C498.774 22.9 499.174 22.7333 499.241 22.4C499.441 22.2 499.541 21.9333 499.541 21.6C499.541 21.2667 499.507 20.9667 499.441 20.7C496.641 7.36666 489.374 0.599995 477.641 0.399994C474.774 0.399994 472.074 1.06666 469.541 2.4C467.074 3.66666 464.874 5.43333 462.941 7.7C461.074 9.96666 459.574 12.6333 458.441 15.7C457.307 18.7667 456.707 22.0667 456.641 25.6Z" />
</svg>
