<svg width="254" height="73" viewBox="0 0 254 73" xmlns="http://www.w3.org/2000/svg">
<path d="M15.58 1.15204C15.1427 1.15204 14.8693 1.34337 14.76 1.72604L0.164016 70.9341C1.56239e-05 71.3167 1.56239e-05 71.6174 0.164016 71.8361C0.273349 71.9454 0.601349 72 1.14802 72H11.562C12.1087 72 12.464 71.9454 12.628 71.8361C12.792 71.6721 12.9287 71.3714 13.038 70.9341C13.038 70.9341 13.12 70.4694 13.284 69.54C13.5027 68.6107 13.7213 67.572 13.94 66.424C14.2133 65.276 14.432 64.21 14.596 63.226C14.8147 62.242 14.924 61.7227 14.924 61.668H25.748C25.748 61.7227 25.8574 62.242 26.076 63.226C26.3494 64.1554 26.5954 65.194 26.814 66.342C27.0874 67.49 27.3334 68.5287 27.552 69.458C27.7707 70.3874 27.88 70.8521 27.88 70.8521C27.9893 71.3441 28.1533 71.6721 28.372 71.8361C28.6453 71.9454 29.028 72.0274 29.52 72.082L39.524 72C40.0707 72.0547 40.4807 72.0001 40.754 71.8361C40.8087 71.5081 40.8087 71.0707 40.754 70.524L26.076 1.72604C26.0213 1.4527 25.9393 1.2887 25.83 1.23404C25.7207 1.17937 25.5294 1.15204 25.256 1.15204H15.58ZM18.04 48.63C17.9307 48.63 17.876 48.5754 17.876 48.466V48.384C17.876 48.3294 17.958 47.9194 18.122 47.154C18.286 46.334 18.4773 45.2954 18.696 44.038C18.9693 42.7807 19.2154 41.5507 19.434 40.348C19.7074 39.0907 19.926 37.9974 20.09 37.068C20.3087 36.084 20.4453 35.4827 20.5 35.264C20.5547 35.5374 20.7187 36.3574 20.992 37.724C21.2653 39.0907 21.566 40.5667 21.894 42.152C22.222 43.6827 22.4953 45.0767 22.714 46.334C22.9873 47.5914 23.124 48.22 23.124 48.22V48.63C23.0147 48.7394 22.9327 48.794 22.878 48.794H18.204C18.0947 48.794 18.04 48.7394 18.04 48.63Z"/>
<path d="M82.9353 0.988037H49.2333C48.9053 0.988037 48.6047 1.1247 48.3313 1.39804C48.058 1.67137 47.9213 2.08137 47.9213 2.62804V11.73C47.9213 12.9327 48.5227 13.534 49.7253 13.534H67.5193C67.5193 13.5887 67.1367 14.6547 66.3713 16.732C65.606 18.8094 64.5947 21.488 63.3373 24.768C62.1347 28.048 60.7953 31.7107 59.3193 35.756C57.8433 39.7467 56.3673 43.71 54.8913 47.646C53.47 51.5274 52.1307 55.1627 50.8733 58.552C49.616 61.9414 48.632 64.6201 47.9213 66.5881C47.2107 68.5014 46.828 69.5127 46.7733 69.622C46.664 69.8954 46.582 70.1687 46.5273 70.442C46.4727 70.6607 46.4453 70.8794 46.4453 71.0981C46.4453 71.3714 46.5 71.5627 46.6093 71.6721C46.7187 71.8907 47.0467 72 47.5933 72H82.0333C82.908 72 83.3453 71.6447 83.3453 70.9341V60.356C83.3453 59.8094 83.2087 59.5087 82.9353 59.454C82.662 59.3447 82.3067 59.29 81.8693 59.29H63.7473C63.7473 59.2354 64.13 58.1967 64.8953 56.174C65.7153 54.0967 66.7267 51.4454 67.9293 48.22C69.132 44.94 70.4713 41.3047 71.9473 37.314C73.478 33.3234 74.954 29.3874 76.3753 25.506C77.8513 21.6247 79.218 18.0167 80.4753 14.682C81.7327 11.3474 82.7167 8.72337 83.4273 6.81004C84.138 4.84204 84.5207 3.80337 84.5753 3.69404C84.8487 3.03804 84.9853 2.54604 84.9853 2.21804C84.9853 2.05404 84.958 1.94471 84.9033 1.89004C84.8487 1.78071 84.794 1.67137 84.7393 1.56204C84.4113 1.17937 83.81 0.988037 82.9353 0.988037Z"/>
<path d="M124.846 0.988037H91.9643C91.3083 0.988037 90.8983 1.07004 90.7343 1.23404C90.5703 1.39804 90.4883 1.80804 90.4883 2.46404V70.1961C90.4883 71.0161 90.5976 71.5081 90.8163 71.6721C90.9256 71.8907 91.3083 72 91.9643 72H124.6C125.202 72 125.557 71.9181 125.666 71.7541C125.83 71.5354 125.912 71.1254 125.912 70.524V60.766C125.912 60.0554 125.83 59.618 125.666 59.454C125.393 59.29 125.038 59.2354 124.6 59.29H102.952V42.644H120.664C121.047 42.644 121.266 42.5894 121.32 42.48C121.375 42.3707 121.402 42.1794 121.402 41.906V31.082C121.402 30.8087 121.375 30.6174 121.32 30.508C121.211 30.3987 121.02 30.344 120.746 30.344H102.952V13.534H125.174C125.502 13.534 125.694 13.4794 125.748 13.37C125.858 13.2607 125.912 13.0694 125.912 12.796V2.79204C125.912 1.91737 125.803 1.37071 125.584 1.15204C125.475 1.0427 125.229 0.988037 124.846 0.988037Z"/>
<path d="M131.652 1.31604C131.543 1.48004 131.488 2.02671 131.488 2.95604V70.36C131.488 71.0707 131.598 71.5081 131.816 71.6721C131.926 71.8907 132.363 72 133.128 72H142.148C143.132 72 143.706 71.8907 143.87 71.6721C144.034 71.4534 144.116 71.2074 144.116 70.9341C144.171 70.6607 144.198 70.3054 144.198 69.868V47.728C144.253 47.9467 144.526 48.6847 145.018 49.942C145.565 51.1447 146.194 52.6207 146.904 54.37C147.615 56.1194 148.353 58.0054 149.118 60.028C149.938 61.996 150.676 63.8274 151.332 65.522C152.043 67.162 152.617 68.556 153.054 69.704C153.546 70.7974 153.792 71.344 153.792 71.344C153.902 71.6174 153.984 71.8087 154.038 71.9181C154.148 71.9727 154.366 72 154.694 72H166.338C166.721 72 166.967 71.8907 167.076 71.6721C167.076 71.6174 167.104 71.5354 167.158 71.426C167.213 71.3167 167.24 71.2074 167.24 71.0981C167.24 71.0434 167.213 70.9614 167.158 70.8521C167.104 70.7427 167.076 70.6334 167.076 70.524C167.076 70.4694 166.858 69.95 166.42 68.966C166.038 67.9274 165.491 66.5334 164.78 64.784C164.07 63.0347 163.304 61.1487 162.484 59.126C161.719 57.1034 160.899 55.0534 160.024 52.976C159.204 50.8987 158.439 49.0127 157.728 47.318C157.072 45.6234 156.526 44.2294 156.088 43.136C155.651 42.0427 155.432 41.496 155.432 41.496C159.04 40.0747 161.856 37.642 163.878 34.198C165.901 30.6994 166.912 26.6267 166.912 21.98V21.898C166.912 19.0554 166.448 16.3767 165.518 13.862C164.589 11.3474 163.332 9.1607 161.746 7.30204C160.161 5.3887 158.302 3.88537 156.17 2.79204C154.038 1.69871 151.905 0.988037 149.5 0.988037H133C133 0.988037 132 1 131.652 1.31604ZM144.116 13.616H149.036C149.911 13.616 150.704 13.862 151.414 14.354C152.125 14.846 152.699 15.502 153.136 16.322C153.574 17.142 153.902 18.0714 154.12 19.11C154.394 20.094 154.53 21.1054 154.53 22.144V22.226C154.53 23.21 154.421 24.194 154.202 25.178C153.984 26.1074 153.656 26.9547 153.218 27.72C152.781 28.4854 152.234 29.114 151.578 29.606C150.922 30.098 150.13 30.344 149.2 30.344H144.116V13.616Z"/>
<path d="M173.631 0.988037C173.029 0.988037 172.729 1.34337 172.729 2.05404V12.304C172.729 12.5774 172.811 12.8234 172.975 13.042C173.139 13.2607 173.357 13.37 173.631 13.37H184.045V70.9341C184.045 71.6447 184.4 72 185.111 72H195.689C196.345 72 196.673 71.6447 196.673 70.9341V13.37H207.169C207.442 13.37 207.661 13.2607 207.825 13.042C208.043 12.8234 208.153 12.5774 208.153 12.304V2.05404C208.153 1.34337 207.825 0.988037 207.169 0.988037H173.631Z"/>
<path d="M241.281 0.988037C240.843 1.09737 240.461 1.28871 240.133 1.56204C239.859 1.78071 239.668 2.13604 239.559 2.62804C239.504 2.73737 239.285 3.47537 238.903 4.84204C238.575 6.15404 238.11 7.90337 237.509 10.09C236.907 12.222 236.306 14.3267 235.705 16.404C235.158 18.4814 234.666 20.2854 234.229 21.816C233.791 23.3467 233.545 24.194 233.491 24.358C233.436 24.194 233.163 23.3467 232.671 21.816C232.233 20.2307 231.714 18.3994 231.113 16.322C230.511 14.2447 229.883 12.14 229.227 10.008C228.571 7.82137 228.051 6.0447 227.669 4.67804C227.286 3.31137 227.067 2.57337 227.013 2.46404C226.903 1.58937 226.521 1.15204 225.865 1.15204H214.959C214.412 1.15204 214.057 1.28871 213.893 1.56204C213.674 1.89004 213.674 2.32737 213.893 2.87404L227.013 41.332C227.122 41.5507 227.177 41.8787 227.177 42.316V70.606C227.177 71.5354 227.669 72 228.653 72H237.919C239.176 72 239.805 71.508 239.805 70.524V42.48C239.805 42.0427 239.887 41.66 240.051 41.332L253.007 2.62804C253.061 2.08137 253.061 1.6987 253.007 1.48004C252.733 1.15204 252.241 0.988037 251.531 0.988037H241.281Z"/>
</svg>
