<svg fill="#fff" width="309" height="88" viewBox="0 0 309 88" xmlns="http://www.w3.org/2000/svg">
<path d="M18.9998 0.599997C18.4665 0.599997 18.1331 0.83333 17.9998 1.29999L0.199805 85.7C-0.00019531 86.1667 -0.00019531 86.5333 0.199805 86.8C0.333138 86.9333 0.733138 87 1.3998 87H14.0998C14.7665 87 15.1998 86.9333 15.3998 86.8C15.5998 86.6 15.7665 86.2333 15.8998 85.7C15.8998 85.7 15.9998 85.1333 16.1998 84C16.4665 82.8667 16.7331 81.6 16.9998 80.2C17.3331 78.8 17.5998 77.5 17.7998 76.3C18.0665 75.1 18.1998 74.4667 18.1998 74.4H31.3998C31.3998 74.4667 31.5331 75.1 31.7998 76.3C32.1331 77.4333 32.4331 78.7 32.6998 80.1C33.0331 81.5 33.3331 82.7667 33.5998 83.9C33.8665 85.0333 33.9998 85.6 33.9998 85.6C34.1331 86.2 34.3331 86.6 34.5998 86.8C34.9331 86.9333 35.3998 87.0333 35.9998 87.1L48.1998 87C48.8665 87.0667 49.3665 87 49.6998 86.8C49.7665 86.4 49.7665 85.8667 49.6998 85.2L31.7998 1.29999C31.7331 0.966661 31.6331 0.766662 31.4998 0.699996C31.3665 0.63333 31.1331 0.599997 30.7998 0.599997H18.9998ZM21.9998 58.5C21.8665 58.5 21.7998 58.4333 21.7998 58.3V58.2C21.7998 58.1333 21.8998 57.6333 22.0998 56.7C22.2998 55.7 22.5331 54.4333 22.7998 52.9C23.1331 51.3667 23.4331 49.8667 23.6998 48.4C24.0331 46.8667 24.2998 45.5333 24.4998 44.4C24.7665 43.2 24.9331 42.4667 24.9998 42.2C25.0665 42.5333 25.2665 43.5333 25.5998 45.2C25.9331 46.8667 26.2998 48.6667 26.6998 50.6C27.0998 52.4667 27.4331 54.1667 27.6998 55.7C28.0331 57.2333 28.1998 58 28.1998 58V58.5C28.0665 58.6333 27.9665 58.7 27.8998 58.7H22.1998C22.0665 58.7 21.9998 58.6333 21.9998 58.5Z"/>
<path d="M101.14 0.399994H60.0404C59.6404 0.399994 59.2738 0.56666 58.9404 0.899993C58.6071 1.23333 58.4404 1.73333 58.4404 2.4V13.5C58.4404 14.9667 59.1738 15.7 60.6404 15.7H82.3404C82.3404 15.7667 81.8738 17.0667 80.9404 19.6C80.0071 22.1333 78.7738 25.4 77.2404 29.4C75.7738 33.4 74.1404 37.8667 72.3404 42.8C70.5404 47.6667 68.7404 52.5 66.9404 57.3C65.2071 62.0333 63.5738 66.4667 62.0404 70.6C60.5071 74.7333 59.3071 78 58.4404 80.4C57.5738 82.7333 57.1071 83.9667 57.0404 84.1C56.9071 84.4333 56.8071 84.7667 56.7404 85.1C56.6738 85.3667 56.6404 85.6333 56.6404 85.9C56.6404 86.2333 56.7071 86.4667 56.8404 86.6C56.9738 86.8667 57.3738 87 58.0404 87H100.04C101.107 87 101.64 86.5667 101.64 85.7V72.8C101.64 72.1333 101.474 71.7667 101.14 71.7C100.807 71.5667 100.374 71.5 99.8404 71.5H77.7404C77.7404 71.4333 78.2071 70.1667 79.1404 67.7C80.1404 65.1667 81.3738 61.9333 82.8404 58C84.3071 54 85.9404 49.5667 87.7404 44.7C89.6071 39.8333 91.4071 35.0333 93.1404 30.3C94.9404 25.5667 96.6071 21.1667 98.1404 17.1C99.6738 13.0333 100.874 9.83333 101.74 7.5C102.607 5.1 103.074 3.83333 103.14 3.69999C103.474 2.9 103.64 2.3 103.64 1.9C103.64 1.7 103.607 1.56666 103.54 1.5C103.474 1.36666 103.407 1.23333 103.34 1.1C102.94 0.633328 102.207 0.399994 101.14 0.399994Z"/>
<path d="M152.251 0.399994H112.151C111.351 0.399994 110.851 0.499995 110.651 0.699996C110.451 0.899997 110.351 1.4 110.351 2.19999V84.8C110.351 85.8 110.485 86.4 110.751 86.6C110.885 86.8667 111.351 87 112.151 87H151.951C152.685 87 153.118 86.9 153.251 86.7C153.451 86.4333 153.551 85.9333 153.551 85.2V73.3C153.551 72.4333 153.451 71.9 153.251 71.7C152.918 71.5 152.485 71.4333 151.951 71.5H125.551V51.2H147.151C147.618 51.2 147.885 51.1333 147.951 51C148.018 50.8667 148.051 50.6333 148.051 50.3V37.1C148.051 36.7667 148.018 36.5333 147.951 36.4C147.818 36.2667 147.585 36.2 147.251 36.2H125.551V15.7H152.651C153.051 15.7 153.285 15.6333 153.351 15.5C153.485 15.3667 153.551 15.1333 153.551 14.8V2.6C153.551 1.53333 153.418 0.866664 153.151 0.599997C153.018 0.466662 152.718 0.399994 152.251 0.399994Z"/>
<path d="M160.551 0.799995C160.418 0.999996 160.351 1.66666 160.351 2.79999V85C160.351 85.8667 160.485 86.4 160.751 86.6C160.885 86.8667 161.418 87 162.351 87H173.351C174.551 87 175.251 86.8667 175.451 86.6C175.651 86.3333 175.751 86.0333 175.751 85.7C175.818 85.3667 175.851 84.9333 175.851 84.4V57.4C175.918 57.6667 176.251 58.5667 176.851 60.1C177.518 61.5667 178.285 63.3667 179.151 65.5C180.018 67.6333 180.918 69.9333 181.851 72.4C182.851 74.8 183.751 77.0333 184.551 79.1C185.418 81.1 186.118 82.8 186.651 84.2C187.251 85.5333 187.551 86.2 187.551 86.2C187.685 86.5333 187.785 86.7667 187.851 86.9C187.985 86.9667 188.251 87 188.651 87H202.851C203.318 87 203.618 86.8667 203.751 86.6C203.751 86.5333 203.785 86.4333 203.851 86.3C203.918 86.1667 203.951 86.0333 203.951 85.9C203.951 85.8333 203.918 85.7333 203.851 85.6C203.785 85.4667 203.751 85.3333 203.751 85.2C203.751 85.1333 203.485 84.5 202.951 83.3C202.485 82.0333 201.818 80.3333 200.951 78.2C200.085 76.0667 199.151 73.7667 198.151 71.3C197.218 68.8333 196.218 66.3333 195.151 63.8C194.151 61.2667 193.218 58.9667 192.351 56.9C191.551 54.8333 190.885 53.1333 190.351 51.8C189.818 50.4667 189.551 49.8 189.551 49.8C193.951 48.0667 197.385 45.1 199.851 40.9C202.318 36.6333 203.551 31.6667 203.551 26V25.9C203.551 22.4333 202.985 19.1667 201.851 16.1C200.718 13.0333 199.185 10.3667 197.251 8.1C195.318 5.76666 193.051 3.93333 190.451 2.6C187.851 1.26666 185.085 0.599997 182.151 0.599997H162.551C161.551 0.399996 160.885 0.466662 160.551 0.799995ZM175.751 15.8H181.751C182.818 15.8 183.785 16.1 184.651 16.7C185.518 17.3 186.218 18.1 186.751 19.1C187.285 20.1 187.685 21.2333 187.951 22.5C188.285 23.7 188.451 24.9333 188.451 26.2V26.3C188.451 27.5 188.318 28.7 188.051 29.9C187.785 31.0333 187.385 32.0667 186.851 33C186.318 33.9333 185.651 34.7 184.851 35.3C184.051 35.9 183.085 36.2 181.951 36.2H175.751V15.8Z"/>
<path d="M211.744 0.399994C211.011 0.399994 210.644 0.833328 210.644 1.7V14.2C210.644 14.5333 210.744 14.8333 210.944 15.1C211.144 15.3667 211.411 15.5 211.744 15.5H224.444V85.7C224.444 86.5667 224.878 87 225.744 87H238.644C239.444 87 239.844 86.5667 239.844 85.7V15.5H252.644C252.978 15.5 253.244 15.3667 253.444 15.1C253.711 14.8333 253.844 14.5333 253.844 14.2V1.7C253.844 0.833328 253.444 0.399994 252.644 0.399994H211.744Z"/>
<path d="M294.244 0.399994C293.711 0.533329 293.244 0.766664 292.844 1.1C292.511 1.36666 292.278 1.8 292.144 2.4C292.078 2.53333 291.811 3.43333 291.344 5.09999C290.944 6.7 290.378 8.83333 289.644 11.5C288.911 14.1 288.178 16.6667 287.444 19.2C286.778 21.7333 286.178 23.9333 285.644 25.8C285.111 27.6667 284.811 28.7 284.744 28.9C284.678 28.7 284.344 27.6667 283.744 25.8C283.211 23.8667 282.578 21.6333 281.844 19.1C281.111 16.5667 280.344 14 279.544 11.4C278.744 8.73333 278.111 6.56666 277.644 4.9C277.178 3.23333 276.911 2.33333 276.844 2.19999C276.711 1.13333 276.244 0.599997 275.444 0.599997H262.144C261.478 0.599997 261.044 0.766664 260.844 1.1C260.578 1.5 260.578 2.03333 260.844 2.69999L276.844 49.6C276.978 49.8667 277.044 50.2667 277.044 50.8V85.3C277.044 86.4333 277.644 87 278.844 87H290.144C291.678 87 292.444 86.4 292.444 85.2V51C292.444 50.4667 292.544 50 292.744 49.6L308.544 2.4C308.611 1.73333 308.611 1.26666 308.544 0.999998C308.211 0.599995 307.611 0.399994 306.744 0.399994H294.244Z"/>
</svg>
